#!OML:ASF E:/inclinewalkrobotboard/Project1/Captureday1/Session1/subject1.ASF
:FULLY-SPECIFIED
:DEGREES
26
root 0 0 0 -2.090158564995205 -3.024434473005247 -3.801710741548895
lowerback 20.385480132815687 2.809164139144964 0.11578503291319009
upperback 2.9801947318811357 3.7914156872371994 -0.24397342093867547
thorax -8.214864579302464 1.8215915610614921 -0.9450699736148563
lowerneck -7.729141969245629 -5.471627359520088 -1.0270818658939247
upperneck -2.5367224301687017 -7.651090216680367 4.8992598512743095
head 0.691601051321638 -3.5916684423917635 1.2433590844667528
rclavicle 1.5658777855643415E-15 1.2833144972240623E-15
rhumerus 29.85890605371072 -8.559266610697962 -36.64626250904189
rradius 136.52162899003255
rwrist -12.097351352025717
rhand -19.69008772560836 -27.636917714231398
rfingers 7.125019999999959
rthumb 6.673642524408773 -57.45488874730217
lclavicle -6.27475219017259E-16 1.953289533162788E-15
lhumerus -46.4908824195568 -6.5912917992178786 80.68033713114023
lradius 61.88351442329204
lwrist 10.684334520211403
lhand -14.445504818601346 -20.313183378419897
lfingers 7.125019999999872
lthumb 11.624997156709505 9.425393273865787
rfemur -4.057775396232385 8.79160474830066 35.370741079141524
rtibia 29.21245206828695
rfoot -19.78642309329901 -8.320409913981969
rtoes 5.741961139653303
lfemur -26.635017266566006 1.2148898105094275 -18.26053503020964
ltibia 43.14995615609329
lfoot -3.419776138573601 -4.07168846802026
ltoes 12.608414833306803
27
root 0 0 0 -1.8274422216154012 -2.4711666171791657 -3.8657054755162807
lowerback 20.39928896177822 2.9128730531663276 0.16974946355201703
upperback 2.6209488129868643 3.934303045957548 -0.4248526567775017
thorax -8.6171404498004 1.886611067374325 -1.1973832954884909
lowerneck -8.4079221646615 -5.674026877835024 -1.2152891948268865
upperneck -2.835638661546728 -8.025131927854641 5.199491576987223
head 0.7244787363669003 -3.738567823192062 1.3421661753289573
rclavicle 9.042758288391373E-16 1.0213887356369484E-15
rhumerus 33.74286583081822 -7.614678272814673 -32.791070476193525
rradius 143.10288695118948
rwrist -17.1636277510814
rhand -19.818298426378128 -29.182313722509292
rfingers 7.125019999999965
rthumb 6.550846451519247 -59.00311947875156
lclavicle -6.67940374315808E-16 1.4213323258656876E-15
lhumerus -47.122220482066396 -6.224552786687702 79.91877405593239
lradius 61.89039623362342
lwrist 10.859031300674896
lhand -14.626575122296558 -19.72056192570753
lfingers 7.125019999999863
lthumb 11.450786477441923 10.041758907236835
rfemur -5.351768273236553 8.406369487589608 34.891684017900204
rtibia 31.453568172993954
rfoot -18.86055643319583 -8.436932837798588
rtoes 4.990069794091746
lfemur -25.602900748524394 0.5885099267696376 -18.641346162621268
ltibia 40.399485475450525
lfoot -2.8135879098426013 -4.158556944651292
ltoes 13.243656140063763
28
root 0 0 0 -1.6688671912856137 -2.0542499982600777 -3.905369982413412
lowerback 20.33694077972587 2.93935446225366 0.11422635695663697
upperback 2.454198770276891 3.967706227257306 -0.46093318706079933
thorax -8.75657017950007 1.9059921996647824 -1.2114982755851746
lowerneck -8.521447179762381 -5.792442859676038 -1.2758280596245712
upperneck -2.184706371163612 -8.257486043331275 5.370136305348514
head 0.9756243652016581 -3.8219473595361597 1.3848727191922867
rclavicle 5.458276348238973E-16 8.077223282238759E-16
rhumerus 34.66256644570253 -7.318781662562037 -31.635496742879752
rradius 145.2644121169768
rwrist -19.034647868908422
rhand -19.90270263808612 -29.873715767392945
rfingers 7.125019999999967
rthumb 6.467405197303217 -59.70386051584613
lclavicle -7.341194710161931E-16 1.0514698651469827E-15
lhumerus -47.2882619640448 -6.090904224840801 79.65580983088151
lradius 61.89661200506977
lwrist 10.901549131509306
lhand -14.698977904724167 -19.61612882380033
lfingers 7.125019999999861
lthumb 11.382035986912614 10.169799348965428
rfemur -8.082171155986753 7.947287717339912 34.19385457923772
rtibia 34.45248449742625
rfoot -17.24663608255288 -8.629581440414244
rtoes 4.553388825893627
lfemur -23.724453675306854 0.13096703858524839 -19.134794745012766
ltibia 39.1276068808561
lfoot -1.7169415870506626 -4.951535266373313
ltoes 13.318005895605445
29
root 0 0 0 -1.5129525115400693 -1.5944821853759916 -3.9299412608335786
lowerback 20.274370812343 2.9082222529957855 -0.05947243215226328
upperback 2.3369712584886346 3.91866365173028 -0.40037811529958733
thorax -8.83076198500445 1.8907483573909962 -1.0445552245388872
lowerneck -8.378397180206024 -5.908914608365551 -1.282902114027205
upperneck -0.9233389467730131 -8.470996323356601 5.457217315039593
head 1.3942970067554423 -3.8987955675161174 1.3901285735756543
rclavicle 5.666588726925151E-16 4.068198989639374E-16
rhumerus 34.09309900103066 -7.9121668238528144 -31.91744418670719
rradius 144.4648862909927
rwrist -18.884729979158973
rhand -19.955416302489404 -29.99785063070874
rfingers 7.125019999999968
rthumb 6.413509645787833 -59.838894978111526
lclavicle -6.514942295252103E-16 6.918990599102818E-16
lhumerus -47.29171667356043 -6.055170121527747 79.54699507163421
lradius 61.90190797844753
lwrist 10.954479110654958
lhand -14.76123090508599 -19.525738990778194
lfingers 7.125019999999858
lthumb 11.319024718787874 10.285126579529667
rfemur -14.76760119937055 7.004044931093263 32.80595377341876
rtibia 41.14509980928214
rfoot -13.55225864684083 -9.02581527121275
rtoes 4.951167447311644
lfemur -19.55541876194482 -0.32758349315115254 -20.235593842477098
ltibia 39.29303256719196
lfoot 0.6786381357872031 -7.250118044440257
ltoes 12.89053282789316
30
root 0 0 0 -1.4414018958661083 -1.393310239844921 -3.9336198215948923
lowerback 20.304549971919755 2.85290656273748 -0.21458255207053667
upperback 2.322793696218068 3.8391860767220933 -0.3139633961229056
thorax -8.853442511616102 1.858433180115048 -0.8568350104635988
lowerneck -8.172162861543754 -5.953824566346347 -1.2297044325193158
upperneck -0.09608961828806528 -8.539880011291942 5.401208451127561
head 1.654466294596034 -3.925091208449384 1.3535306833241538
rclavicle 9.632781398586329E-16 -1.6930320580999264E-17
rhumerus 32.896543598067645 -8.85440676427351 -32.90588401831128
rradius 142.15580943303192
rwrist -17.57175461318837
rhand -19.940754071431908 -29.746546840615174
rfingers 7.125019999999969
rthumb 6.425714134025743 -59.59255516891554
lclavicle -4.7538426798149325E-16 4.2366609182379844E-16
lhumerus -47.24850769793444 -6.063078115124582 79.53843236332013
lradius 61.89806758267861
lwrist 10.985254163438942
lhand -14.79023568656314 -19.4643435042306
lfingers 7.125019999999857
lthumb 11.28832042794397 10.360515055363752
rfemur -19.086509575104618 6.054006101933449 31.776355328265332
rtibia 46.844600312428454
rfoot -10.998605272506135 -8.933067284994658
rtoes 5.835611826797872
lfemur -16.513340136411074 -0.5540587633445271 -20.835370250825413
ltibia 40.32651428932052
lfoot 2.4585094971884374 -9.04067938308225
ltoes 11.839989746828586
31
root 0 0 0 -1.3754988478422336 -1.2587316893536107 -3.9314438838706796
lowerback 20.38588006765198 2.769889097308529 -0.4019955297537525
upperback 2.3649724417279328 3.7230407907412646 -0.19098886474804355
thorax -8.846890942691628 1.8084922469095068 -0.6087051404977591
lowerneck -7.864635555711841 -5.976146174005535 -1.1300066220295801
upperneck 0.7270287846716208 -8.555343277945418 5.257254151612063
head 1.9009386761461027 -3.933998950880344 1.2852437513841477
rclavicle 1.5039815639813736E-15 -4.608827713587102E-16
rhumerus 31.105372226968356 -10.026318261275383 -34.35528663354725
rradius 138.88443645472472
rwrist -15.754746535259251
rhand -19.877672216252932 -29.394097062282366
rfingers 7.125019999999969
rthumb 6.484223758495231 -59.24516709080323
lclavicle -3.44033082500184E-16 1.4214611922546531E-16
lhumerus -47.195329795274745 -6.095204895624585 79.58267110634245
lradius 61.89617821076875
lwrist 11.00199114060326
lhand -14.794745894253154 -19.42617386215951
lfingers 7.125019999999856
lthumb 11.281662754098669 10.4034054639768
rfemur -22.390868786680034 4.859315585797009 30.832439098777964
rtibia 53.020625857626506
rfoot -8.812266981388623 -8.244789107527701
rtoes 7.197258095771912
lfemur -13.985112269971946 -0.6512475310833832 -20.976205902025768
ltibia 42.09444145625331
lfoot 4.0013002246564575 -10.61056913012115
ltoes 9.99499105092979
32
root 0 0 0 -1.2888723003574079 -1.1492708110373133 -3.9305070276968688
lowerback 20.48990044069098 2.6671564355074464 -0.6089195239810314
upperback 2.44691361412486 3.58161422032751 -0.045310782528417026
thorax -8.811343759655083 1.7455796092385238 -0.3234083304696428
lowerneck -7.470864085757072 -5.982624541081641 -0.9969281489700048
upperneck 1.5376047120029828 -8.534319150430512 5.054957626977254
head 2.13263993867029 -3.931096924559907 1.195601195282497
rclavicle 2.0628869817714456E-15 -7.414640043923028E-16
rhumerus 29.075988437640227 -11.215417839772705 -35.85121604994832
rradius 135.46099642574057
rwrist -14.104376565409424
rhand -19.76864599661906 -29.153856506146802
rfingers 7.125019999999968
rthumb 6.586809496004943 -59.00813744058382
lclavicle -3.065613868871661E-16 -6.426341197434967E-17
lhumerus -47.13043617268852 -6.162491204979893 79.69766389163401
lradius 61.902004586265384
lwrist 10.995127282618435
lhand -14.762457799817472 -19.440538250967975
lfingers 7.125019999999857
lthumb 11.311887639997476 10.378795706423055
rfemur -24.445065774695436 3.7164638050965664 30.015542058757067
rtibia 58.71786255325256
rfoot -6.95042326730308 -7.240311592127908
rtoes 8.794454564019931
lfemur -12.250409690136838 -0.5388078890283592 -20.602612313379414
ltibia 44.885540348289624
lfoot 5.093727893411501 -11.811640137321252
ltoes 7.312642631409311
